<svg aria-hidden="true" style="position: absolute; width: 0; height: 0; overflow: hidden;" version="1.1" xmlns="http://www.w3.org/2000/svg" xmlns:xlink="http://www.w3.org/1999/xlink">
<defs>
<symbol id="icon-smartphone" viewBox="0 0 32 32">
<path d="M22.717 0h-13.435c-1.297 0.002-2.348 1.053-2.349 2.349v27.301c0.002 1.297 1.052 2.348 2.349 2.35h13.434c1.297-0.002 2.348-1.052 2.35-2.349v-27.302c-0.002-1.297-1.053-2.348-2.349-2.349h-0zM8 4.267h16v20.267h-16v-20.267zM9.283 1.067h13.434c0.708 0.001 1.282 0.574 1.283 1.283v0.851h-16v-0.851c0.001-0.708 0.575-1.282 1.283-1.283h0zM22.717 30.933h-13.435c-0.708-0.001-1.282-0.575-1.283-1.283v-4.051h16v4.051c-0.001 0.708-0.575 1.282-1.283 1.283h-0z"></path>
<path d="M16 26.133c-1.177 0-2.133 0.957-2.133 2.133s0.957 2.133 2.133 2.133 2.133-0.957 2.133-2.133-0.957-2.133-2.133-2.133zM16 29.333c-0.588 0-1.067-0.478-1.067-1.067s0.478-1.067 1.067-1.067 1.067 0.478 1.067 1.067-0.478 1.067-1.067 1.067zM13.867 2.667h2.133c0.295 0 0.533-0.239 0.533-0.533s-0.239-0.533-0.533-0.533v0h-2.133c-0.295 0-0.533 0.239-0.533 0.533s0.239 0.533 0.533 0.533v0zM17.6 2.667h0.533c0.295 0 0.533-0.239 0.533-0.533s-0.239-0.533-0.533-0.533v0h-0.533c-0.295 0-0.533 0.239-0.533 0.533s0.239 0.533 0.533 0.533v0zM30.193 2.437c-0.096-0.096-0.23-0.156-0.377-0.156-0.294 0-0.533 0.239-0.533 0.533 0 0.147 0.060 0.281 0.156 0.377v0c1.993 1.993 1.993 5.235 0 7.228-0.096 0.097-0.156 0.23-0.156 0.377 0 0.294 0.239 0.533 0.533 0.533 0.147 0 0.281-0.060 0.377-0.156v0c2.409-2.408 2.409-6.327 0-8.736z"></path>
<path d="M27.947 3.651c-0.096-0.096-0.23-0.156-0.377-0.156-0.294 0-0.533 0.239-0.533 0.533 0 0.147 0.060 0.281 0.156 0.377v0c0.66 0.66 1.023 1.539 1.023 2.474s-0.363 1.814-1.023 2.474c-0.096 0.097-0.156 0.23-0.156 0.377 0 0.294 0.239 0.533 0.533 0.533 0.147 0 0.281-0.060 0.377-0.156v0c0.861-0.861 1.335-2.007 1.335-3.228s-0.474-2.367-1.335-3.228zM2.561 3.191c0.096-0.096 0.156-0.23 0.156-0.377 0-0.294-0.239-0.533-0.533-0.533-0.147 0-0.281 0.060-0.377 0.156v0c-2.409 2.409-2.409 6.327 0 8.736 0.096 0.097 0.23 0.157 0.377 0.157s0.281-0.060 0.377-0.157l0-0c0.097-0.096 0.156-0.23 0.156-0.377s-0.060-0.281-0.156-0.377v0c-1.993-1.993-1.993-5.235 0-7.228z"></path>
<path d="M4.807 3.503c-0.096-0.097-0.23-0.156-0.377-0.156s-0.281 0.060-0.377 0.156v0c-0.861 0.861-1.335 2.007-1.335 3.228s0.474 2.367 1.335 3.228c0.096 0.097 0.23 0.157 0.377 0.157s0.281-0.060 0.377-0.157l0-0c0.097-0.096 0.156-0.23 0.156-0.377s-0.060-0.281-0.156-0.377v0c-0.66-0.66-1.023-1.539-1.023-2.474s0.363-1.814 1.023-2.474c0.096-0.096 0.156-0.23 0.156-0.377s-0.060-0.281-0.156-0.377v0z"></path>
</symbol>
</defs>
</svg>
